<svg id="Layer_3" enable-background="new 0 0 500 500" viewBox="0 0 500 500" fill="white" xmlns="http://www.w3.org/2000/svg"><g><g><path d="m25.082 304.369h26.702l-12.283 48.315h-14.419z"/></g><g><path d="m72.957 179.718 5.131 113.133h-78.085l5.131-113.133c.827-18.168 15.718-32.409 33.906-32.409 18.2-.001 33.09 14.24 33.917 32.409z"/></g><g><path d="m410.127 261.436v31.414h-320.248v-31.414c0-17.32 14.095-31.414 31.414-31.414h257.419c17.32 0 31.415 14.095 31.415 31.414z"/></g><g><path d="m69.313 147.308c8.827 7.875 14.566 19.152 15.152 31.886l2.555 56.409c7.843-10.377 20.283-17.1 34.273-17.1h257.419c13.979 0 26.419 6.723 34.262 17.1l2.565-56.409c.576-12.733 6.314-24.011 15.142-31.886zm60.347 48.839c-5.183 0-9.393-4.21-9.393-9.382 0-5.183 4.21-9.393 9.393-9.393 5.173 0 9.393 4.21 9.393 9.393 0 5.173-4.22 9.382-9.393 9.382zm240.686 0c-5.183 0-9.393-4.21-9.393-9.382 0-5.183 4.21-9.393 9.393-9.393 5.173 0 9.382 4.21 9.382 9.393 0 5.173-4.209 9.382-9.382 9.382z"/></g><g><path d="m448.211 304.369h26.702v48.315h-14.419z"/></g><g><path d="m500.003 292.851h-78.096l5.141-113.133c.817-18.168 15.718-32.409 33.906-32.409 18.189 0 33.079 14.241 33.906 32.409z"/></g></g></svg>