<svg height="512" viewBox="0 0 32 32" width="512" xmlns="http://www.w3.org/2000/svg"><g id="Love"><path d="m28.4121 4.6909a8.6884 8.6884 0 0 0 -12.4121-.164 8.6884 8.6884 0 0 0 -12.4121.164 9.3606 9.3606 0 0 0 0 12.9087l11.6934 12.0952a.9989.9989 0 0 0 1.4375 0l11.6933-12.0948a9.3612 9.3612 0 0 0 0-12.9091zm-1.4375 11.5191-10.9746 11.3515-10.9746-11.352a7.3471 7.3471 0 0 1 0-10.1289 6.6916 6.6916 0 0 1 9.6992.0005l.5567.5756a1.03 1.03 0 0 0 1.4375 0l.5566-.5761a6.6922 6.6922 0 0 1 9.6992 0 7.3477 7.3477 0 0 1 0 10.1294z" fill="rgb(0,0,0)"/></g></svg>